<?xml version="1.0" encoding="utf-8"?>
<!-- Generator: Adobe Illustrator 19.0.0, SVG Export Plug-In . SVG Version: 6.00 Build 0)  -->
<svg version="1.1" id="图层_1" xmlns="http://www.w3.org/2000/svg" xmlns:xlink="http://www.w3.org/1999/xlink" x="0px" y="0px"
	 viewBox="-395 354.2 232.7 61.8" style="enable-background:new -395 354.2 232.7 61.8;" xml:space="preserve">
<style type="text/css">
	.st0{fill:#FFFFFF;}
</style>
<g id="XMLID_22_">
	<g id="XMLID_118_">
		<g id="XMLID_119_">
			<g id="大間距_1_">
				<path id="XMLID_122_" class="st0" d="M-361.2,355c-16.6,0-30.1,13.5-30.1,30.1s13.5,30.1,30.1,30.1c11.1,0,20.8-6.1,26.1-15.1
					l-4.2-2.5c-4.3,7.5-12.5,12.5-21.7,12.5c-14,0-25.2-11.2-25.2-25.2s11.2-25.2,25.2-25.2c9.4,0,17.4,5,21.7,12.5l4.3-2.6
					C-340.3,361.1-350,355-361.2,355z"/>
				<path id="XMLID_121_" class="st0" d="M-361.2,361.7c-12.9,0-23.4,10.5-23.4,23.4c0,13,10.5,23.5,23.5,23.5
					c8.7,0,16.2-4.8,20.3-11.7l-4.3-2.6c-3.2,5.6-9.2,9.3-16,9.3c-10.2,0-18.5-8.2-18.5-18.5c0-10.2,8.2-18.5,18.5-18.5
					c6.8,0,12.8,3.7,16,9.3l4.3-2.6C-344.8,366.4-352.4,361.7-361.2,361.7z"/>
				<path id="XMLID_120_" class="st0" d="M-361.2,368.3c-9.3,0-16.8,7.5-16.8,16.8s7.5,16.8,16.8,16.8c6.2,0,11.7-3.4,14.5-8.4
					l-4.2-2.6c-2,3.5-5.8,5.9-10.2,5.9c-6.4,0-11.7-5.2-11.7-11.7c0-6.4,5.2-11.7,11.7-11.7c4.3,0,8.1,2.4,10.2,5.8l4.3-2.6
					C-349.5,371.8-354.9,368.3-361.2,368.3z"/>
			</g>
		</g>
	</g>
	<g id="XMLID_23_">
		<path id="XMLID_116_" class="st0" d="M-310.4,382.5c-3.2,0-5.8-1.1-7.8-3.3c-2-2.2-2.9-5.1-2.9-8.8c0-4,1.2-7.2,3.7-9.5
			c2-1.9,4.4-2.8,7.3-2.8c2.6,0,4.8,1,6.8,2.9l0.1,0.1l-2.5,3c-1.3-1.3-2.8-2-4.3-2c-2.1,0-3.7,0.9-4.9,2.8
			c-0.9,1.4-1.3,3.2-1.3,5.3c0,3.4,0.9,5.7,2.8,7.1c1,0.7,2.1,1.1,3.4,1.1c1.8,0,3.4-0.8,4.8-2.3l2.5,2.9
			C-304.8,381.4-307.3,382.5-310.4,382.5z"/>
		<path id="XMLID_114_" class="st0" d="M-299.1,382.1v-23.5h14.5v3.9h-9.8v6.1h8.4v3.9h-8.4v9.5h-4.7V382.1z"/>
		<path id="XMLID_111_" class="st0" d="M-280.5,382.1v-23.5h6.5c5.3,0,8.8,1.9,10.5,5.7c0.8,1.7,1.1,3.7,1.1,6c0,5-1.7,8.5-5.1,10.4
			c-1.8,1-3.9,1.5-6.3,1.5h-6.7V382.1z M-275.8,378.3h1.5c4.7,0,7.1-2.7,7.1-8.1c-0.1-5.2-2.5-7.8-7.1-7.9h-1.5V378.3z"/>
		<path id="XMLID_52_" class="st0" d="M-245.1,382.1l-1.6-6.1h-7.6l-1.6,6.1h-4.8l7.5-23.5h5.5l7.5,23.5H-245.1z M-253.4,372.4h5.6
			l-0.7-2.6c-0.1-0.2-0.6-2.3-1.7-6.4c-0.1-0.5-0.2-0.9-0.3-1.3h-0.1c-0.6,2.4-1.2,5-2,7.7L-253.4,372.4z"/>
		<path id="XMLID_49_" class="st0" d="M-226.2,382.5c-2,0-3.4-0.7-4.4-2.2c-0.6-0.9-0.9-1.9-0.9-3c0-2.5,1.4-4.3,4.3-5.3
			c1.5-0.6,3.5-1,6-1.3c-0.1-2-1.1-3.1-3-3.1c-1.4,0-3,0.6-4.9,1.7l-1.7-3.1c2.6-1.6,5-2.4,7.4-2.4c4,0,6.2,2,6.7,6.1
			c0.1,0.6,0.1,1.1,0.1,1.8v10.4h-3.8l-0.4-1.9h-0.1C-222.7,381.7-224.5,382.5-226.2,382.5z M-224.7,378.9c1.1,0,2.3-0.6,3.4-1.8
			v-3.6c-3.7,0.6-5.7,1.7-5.8,3.3c0,1.2,0.7,1.9,2,2C-224.9,378.9-224.8,378.9-224.7,378.9z"/>
		<path id="XMLID_47_" class="st0" d="M-211.8,382.1v-17.8h3.8l0.3,2.3h0.1c1.9-1.8,3.8-2.8,5.8-2.8c3.7,0,5.5,2.4,5.5,7.2v11.1
			h-4.7v-10.5c0-2-0.5-3.2-1.6-3.6c-0.3-0.1-0.6-0.1-1-0.1c-1,0-2,0.5-3,1.4c-0.2,0.2-0.4,0.4-0.7,0.6v12.2H-211.8z"/>
		<path id="XMLID_44_" class="st0" d="M-185.2,382.5c-2.6,0-4.6-1.1-5.9-3.4c-0.9-1.6-1.4-3.6-1.4-5.9c0-3.1,0.9-5.6,2.8-7.4
			c1.4-1.3,2.9-2,4.7-2c1.5,0,2.9,0.5,4.1,1.6c0.1,0.1,0.2,0.2,0.4,0.3l-0.2-2.8v-6.3h4.7v25.5h-3.8l-0.4-1.8h-0.1
			C-181.8,381.7-183.5,382.5-185.2,382.5z M-184,378.7c1.3,0,2.4-0.6,3.3-1.8v-7.8c-1-0.9-2.1-1.3-3.3-1.3c-1.3,0-2.4,0.7-3,2.1
			c-0.4,0.9-0.7,2-0.7,3.3c0,3.5,1.1,5.3,3.3,5.5C-184.2,378.7-184.1,378.7-184,378.7z"/>
		<path id="XMLID_42_" class="st0" d="M-310.4,413.4c-3.2,0-5.8-1.1-7.8-3.3c-2-2.2-2.9-5.1-2.9-8.8c0-4,1.2-7.2,3.7-9.5
			c2-1.9,4.4-2.8,7.3-2.8c2.6,0,4.8,1,6.8,2.9l0.1,0.1l-2.5,3c-1.3-1.3-2.8-2-4.3-2c-2.1,0-3.7,0.9-4.9,2.8
			c-0.9,1.4-1.3,3.2-1.3,5.3c0,3.4,0.9,5.7,2.8,7.1c1,0.7,2.1,1.1,3.4,1.1c1.8,0,3.4-0.8,4.8-2.3l2.5,2.9
			C-304.8,412.3-307.3,413.4-310.4,413.4z"/>
		<path id="XMLID_40_" class="st0" d="M-299.1,413v-23.5h4.7v19.6h9.5v3.9H-299.1z"/>
		<path id="XMLID_38_" class="st0" d="M-280.8,413v-23.5h4.7V413H-280.8z"/>
		<path id="XMLID_35_" class="st0" d="M-270.3,413v-23.5h7.7c6.1,0,9.2,2.5,9.2,7.4c0,3.2-1.4,5.5-4.1,6.8c-1.4,0.7-3.1,1-5,1h-3.1
			v8.4L-270.3,413L-270.3,413z M-265.6,400.9h2.8c3.2,0,4.8-1.4,4.8-4.1c0-1.9-0.9-3-2.7-3.4c-0.6-0.1-1.4-0.2-2.2-0.2h-2.7
			L-265.6,400.9L-265.6,400.9z"/>
		<path id="XMLID_33_" class="st0" d="M-241.9,413v-23.5h4.7v19.6h9.5v3.9H-241.9z"/>
		<path id="XMLID_30_" class="st0" d="M-210.9,413l-1.6-6.1h-7.6l-1.6,6.1h-4.8l7.5-23.5h5.5l7.5,23.5H-210.9z M-219.1,403.3h5.6
			l-0.7-2.6c-0.1-0.2-0.6-2.3-1.7-6.4c-0.1-0.5-0.2-0.9-0.3-1.3h-0.1c-0.6,2.4-1.2,5-2,7.7L-219.1,403.3z"/>
		<path id="XMLID_26_" class="st0" d="M-203.2,413v-23.5h7.8c5.7,0,8.5,2,8.5,5.8c0,1.7-0.6,3.1-1.7,4.1c-0.5,0.4-1,0.7-1.5,0.9v0.2
			c2.2,0.5,3.6,1.7,4.2,3.7c0.2,0.6,0.2,1.2,0.2,1.9c0,2.9-1.4,5-4.2,6.1c-1.4,0.6-3,0.8-4.9,0.8H-203.2z M-198.5,399h2.7
			c2.7-0.2,4.1-1.2,4.3-3.1c0-1.6-0.9-2.5-2.6-2.8c-0.5-0.1-1-0.1-1.6-0.1h-2.8L-198.5,399L-198.5,399z M-198.5,409.4h3.3
			c3.3,0,4.9-1.2,5-3.6c0-2.2-1.7-3.2-5-3.3h-3.3V409.4z"/>
		<path id="XMLID_24_" class="st0" d="M-174.6,413.4c-3,0-5.6-0.9-7.9-2.8c-0.2-0.2-0.4-0.4-0.7-0.6l2.7-3.3
			c1.7,1.6,3.5,2.4,5.5,2.6c0.2,0,0.4,0,0.5,0c2,0,3.3-0.7,3.6-2c0.1-0.2,0.1-0.5,0.1-0.7c0-0.9-0.5-1.7-1.5-2.2
			c-0.4-0.2-1-0.5-2-0.9l-3.2-1.3c-3.1-1.3-4.7-3.5-4.8-6.3c0-2.1,0.9-3.8,2.6-5.2c1.5-1.1,3.3-1.6,5.5-1.6c2.6,0,4.8,0.8,6.8,2.5
			c0.2,0.2,0.4,0.4,0.6,0.6l-2.4,2.9c-1.6-1.3-3.2-1.9-5-1.9c-1.7,0-2.8,0.5-3.3,1.6c-0.1,0.3-0.2,0.6-0.2,0.9
			c0,0.9,0.6,1.7,1.8,2.3c0.4,0.2,1,0.4,1.9,0.8l3.1,1.3c2.6,1.1,4.1,2.7,4.6,4.8c0.1,0.5,0.2,1.1,0.2,1.6c0,2.2-0.9,3.9-2.6,5.3
			C-170.1,412.8-172.1,413.4-174.6,413.4z"/>
	</g>
</g>
</svg>
